<?xml version="1.0" encoding="utf-8"?>
<!-- Generator: Adobe Illustrator 17.1.0, SVG Export Plug-In . SVG Version: 6.00 Build 0)  -->
<!DOCTYPE svg PUBLIC "-//W3C//DTD SVG 1.1//EN" "http://www.w3.org/Graphics/SVG/1.1/DTD/svg11.dtd">
<svg version="1.1" xmlns="http://www.w3.org/2000/svg" xmlns:xlink="http://www.w3.org/1999/xlink" x="0px" y="0px"
	 viewBox="0 0 600 495" enable-background="new 0 0 600 495" xml:space="preserve">
<g id="Layer_1">
	<rect x="-26" y="-52" fill="#1188B7" width="664" height="294.2"/>
	<rect x="-22" y="242.2" fill="#A8C659" width="685" height="261.7"/>
</g>
<g id="Layer_2">
	<g>
		<path fill="#FCF8C3" d="M293.6,273.8V445h131.1h5.4h131.1V273.8H430h-5.4H293.6z M430,300.5v-5.4H505v61.5H430v-5.4h-5.4v5.4
			h-72.2v-61.5h72.2v5.4H430z M555.8,362.1v58.9h-45.5V295.2h45.5v61.5h-8v5.4H555.8z M424.7,418.2v2.7h-72.2v-58.9h72.2v5.4h5.4
			v-5.4H505v58.9H430v-2.7H424.7z M347.1,420.9h-48.2v-58.9h8v-5.4h-8v-61.5h48.2V420.9z M298.9,439.6v-13.4h125.7v14.8h5.4v-14.8
			h125.7v13.4H298.9z M555.8,289.8H430v-13.4h-5.4v13.4H298.9v-10.7h256.8V289.8z"/>
		<rect x="424.7" y="396.8" fill="#FCF8C3" width="5.4" height="13.4"/>
		<rect x="424.7" y="372.8" fill="#FCF8C3" width="5.4" height="16.1"/>
		<rect x="424.7" y="330" fill="#FCF8C3" width="5.4" height="16.1"/>
		<rect x="424.7" y="308.5" fill="#FCF8C3" width="5.4" height="13.4"/>
	</g>
</g>
<g id="Layer_3">
	<g>
		<path fill="#FCF8C3" d="M53.9,56.2c-0.1-0.9-0.6-4.4-5.5-4.4c-6.1,0-7.2,6.2-7.2,10.4c0,4.8,1.4,9.9,7.1,9.9c1.5,0,3-0.4,4.1-1.5
			c0.9-1,1.1-2.1,1.2-2.7h3.9c-0.5,5-5.1,7-9.5,7c-8.9,0-10.6-7.8-10.6-12.7c0-5.3,2.1-13.3,11.1-13.3c3.6,0,8.6,1.4,9.1,7.2H53.9z"
			/>
		<path fill="#FCF8C3" d="M65,57.1v11.3c0,1.7,0.4,3.9,3.7,3.9c1.6,0,3.2-0.6,4.1-2c0.7-1.1,0.7-2.4,0.7-3.3v-9.9H77v14.3
			c0,0.4,0.1,2.3,0.1,3.3h-3.4l-0.1-3c-0.6,1.2-1.8,3.2-5.6,3.2c-4.3,0-6.4-2.5-6.4-6V57.1H65z"/>
		<path fill="#FCF8C3" d="M83.5,59.1l0-2h3.3l0,2.8c0.4-0.7,1.6-3.2,5.6-3.2c1.6,0,6.4,0.6,6.4,6v11.9h-3.4V63.5
			c0-1.2-0.1-2.2-0.9-3c-0.8-0.8-2-1.2-3.1-1.2c-2.4,0-4.6,1.7-4.6,5.3v10.1h-3.3V59.1z"/>
		<path fill="#FCF8C3" d="M104.9,59.1l0-2h3.3l0,2.8c0.4-0.7,1.6-3.2,5.6-3.2c1.6,0,6.4,0.6,6.4,6v11.9h-3.4V63.5
			c0-1.2-0.1-2.2-0.9-3c-0.8-0.8-2-1.2-3.1-1.2c-2.4,0-4.6,1.7-4.6,5.3v10.1h-3.3V59.1z"/>
		<path fill="#FCF8C3" d="M125.8,49.4h4V53h-4V49.4z M126.2,57.1h3.3v17.6h-3.3V57.1z"/>
		<path fill="#FCF8C3" d="M136,59.1l0-2h3.3l0,2.8c0.4-0.7,1.6-3.2,5.6-3.2c1.6,0,6.4,0.6,6.4,6v11.9h-3.4V63.5c0-1.2-0.1-2.2-0.9-3
			c-0.8-0.8-2-1.2-3.1-1.2c-2.4,0-4.6,1.7-4.6,5.3v10.1H136V59.1z"/>
		<path fill="#FCF8C3" d="M160.4,76c0.1,2,1,3.4,4.1,3.4c4.6,0,4.7-3.3,4.7-8.1c-1.4,2.9-4.7,3-5.8,3c-1.6,0-3.9-0.4-5.4-2.2
			c-1.5-1.8-2-4.1-2-6.5c0-6,3.5-8.9,7.8-8.9c3.5,0,4.8,1.8,5.5,2.7l0-2.4h3.2l-0.1,3.2l0,11c0,4.2-0.1,6-0.8,7.3
			c-1.5,2.8-4.9,3.2-7.3,3.2c-7,0-7.2-3.3-7.4-5.7H160.4z M168.1,70.1c0.7-0.9,1.2-1.9,1.2-5c0-2.2-0.5-3.5-1.4-4.4
			c-0.9-0.9-2.3-1.5-3.8-1.5c-4.2,0-4.7,4.2-4.7,6.4c0,2.7,0.8,6.3,4.8,6.3C166.2,71.9,167.3,71.2,168.1,70.1z"/>
		<path fill="#FCF8C3" d="M178.7,49.4h3.3v10.3c1.1-1.9,3.3-2.9,5.7-2.9c1.9,0,4.5,0.7,5.5,2.8c0.4,0.7,0.6,1.5,0.6,4.1v11h-3.4
			V64.2c0-1.6,0-5-3.8-5c-2.5,0-3.7,1.5-4.1,2.3c-0.6,1-0.6,2.6-0.6,3.7v9.3h-3.3V49.4z"/>
		<path fill="#FCF8C3" d="M210.8,74.6c-0.2-0.9-0.3-1.7-0.3-2.6c-1.6,2.9-4,3.2-5.4,3.2c-4,0-6.2-2.3-6.2-5.2c0-1.4,0.5-3.6,3.1-5.1
			c1.9-1,4.7-1.2,6.1-1.2c0.8,0,1.4,0,2.4,0.1c0-2.2,0-3.1-0.6-3.9c-0.7-0.9-2.1-1.2-3-1.2c-3.3,0-3.5,2.3-3.5,3h-3.3
			c0.1-0.9,0.2-2.1,1.2-3.3c1.3-1.5,3.8-1.9,5.7-1.9c2.6,0,5.3,0.8,6.2,2.6c0.6,1.1,0.6,1.9,0.6,2.7l-0.1,8.4c0,0.3,0,2.6,0.3,4.4
			H210.8z M208.5,66c-1.3,0-6.3,0-6.3,3.6c0,1.1,0.7,3,3.6,3c1.7,0,2.9-0.7,3.7-1.9c0.7-1.2,0.8-2.2,0.8-4.6
			C209.8,66,209.3,66,208.5,66z"/>
		<path fill="#FCF8C3" d="M219.5,59.4l-0.1-2.3h3.3v2.6c1.7-2.8,4.1-3,5.6-3c3.9,0,5.1,2,5.7,3.3c0.6-1,2-3.3,5.9-3.3
			c2.5,0,6.4,1.1,6.4,6.2v11.8h-3.3V63.4c0-1.5-0.3-2.2-0.6-2.7c-0.6-0.8-1.7-1.5-3.4-1.5c-2.1,0-3.3,1.2-3.7,1.9
			c-0.8,1.1-0.8,3-0.8,3.8v9.8h-3.3V63c0-2.2-1.3-3.9-3.9-3.9c-2.2,0-3.5,1.4-3.9,1.9c-0.7,1-0.8,2.5-0.8,3.6v10h-3.3V59.4z"/>
		<path fill="#FCF8C3" d="M262.1,74.6V52.3h-8.5v-3H274v3h-8.5v22.3H262.1z"/>
		<path fill="#FCF8C3" d="M275.3,66.4c-0.1,3.6,1.4,6.3,5,6.3c2.1,0,3.9-1.1,4.1-3.6h3.3c-0.1,0.9-0.2,2.3-1.5,3.7
			c-0.8,0.9-2.5,2.3-6.1,2.3c-5.5,0-8.2-3.4-8.2-9c0-3.5,0.7-6.3,3.5-8.3c1.7-1.2,3.8-1.3,4.8-1.3c7.9,0,7.7,7,7.6,9.8H275.3z
			 M284.6,64.1c0-1.7-0.3-5.2-4.3-5.2c-2.1,0-4.7,1.3-4.8,5.2H284.6z"/>
		<path fill="#FCF8C3" d="M292.9,59.1l0-2h3.3l0,2.8c0.4-0.7,1.6-3.2,5.6-3.2c1.6,0,6.4,0.6,6.4,6v11.9h-3.4V63.5
			c0-1.2-0.1-2.2-0.9-3c-0.8-0.8-2-1.2-3.1-1.2c-2.4,0-4.6,1.7-4.6,5.3v10.1h-3.3V59.1z"/>
		<path fill="#FCF8C3" d="M314.3,59.1l0-2h3.3l0,2.8c0.4-0.7,1.6-3.2,5.6-3.2c1.6,0,6.4,0.6,6.4,6v11.9h-3.4V63.5
			c0-1.2-0.1-2.2-0.9-3c-0.8-0.8-2-1.2-3.1-1.2c-2.4,0-4.6,1.7-4.6,5.3v10.1h-3.3V59.1z"/>
		<path fill="#FCF8C3" d="M335.2,49.4h4V53h-4V49.4z M335.6,57.1h3.3v17.6h-3.3V57.1z"/>
		<path fill="#FCF8C3" d="M347.2,69.4c0,1.3,0.7,3.2,3.9,3.2c1.4,0,2.4-0.2,3.1-1.1c0.3-0.5,0.6-1.1,0.6-1.6c0-1.7-1.2-2-3.8-2.6
			c-3.7-0.8-6.8-1.6-6.8-5.3c0-3.2,2.8-5.3,6.9-5.3c2.2,0,5.3,0.6,6.3,2.7c0.5,1,0.5,1.8,0.5,2.6h-3.4c0.1-2.7-2.2-2.9-3.4-2.9
			c-0.5,0-3.6,0-3.6,2.5c0,1.6,1.6,2,2.5,2.2c4.9,1.2,5.9,1.4,7,2.4c1,0.9,1.3,2.1,1.3,3.3c0,2-1.1,3.6-2.4,4.4
			c-1.5,0.9-3.4,1.2-5.2,1.2c-3.6,0-6.9-1.5-6.9-5.7H347.2z"/>
		<path fill="#FCF8C3" d="M387.8,56.2c-0.1-0.9-0.6-4.4-5.5-4.4c-6.1,0-7.2,6.2-7.2,10.4c0,4.8,1.4,9.9,7.1,9.9c1.5,0,3-0.4,4.1-1.5
			c0.9-1,1.1-2.1,1.2-2.7h3.9c-0.5,5-5.1,7-9.5,7c-8.9,0-10.6-7.8-10.6-12.7c0-5.3,2.1-13.3,11.1-13.3c3.6,0,8.6,1.4,9.1,7.2H387.8z
			"/>
		<path fill="#FCF8C3" d="M397.9,66.4c-0.1,3.6,1.4,6.3,5,6.3c2.1,0,3.9-1.1,4.1-3.6h3.3c-0.1,0.9-0.2,2.3-1.5,3.7
			c-0.8,0.9-2.5,2.3-6.1,2.3c-5.5,0-8.2-3.4-8.2-9c0-3.5,0.7-6.3,3.5-8.3c1.7-1.2,3.8-1.3,4.8-1.3c7.9,0,7.7,7,7.6,9.8H397.9z
			 M407.1,64.1c0-1.7-0.3-5.2-4.3-5.2c-2.1,0-4.7,1.3-4.8,5.2H407.1z"/>
		<path fill="#FCF8C3" d="M415.4,59.1l0-2h3.3l0,2.8c0.4-0.7,1.6-3.2,5.6-3.2c1.6,0,6.4,0.6,6.4,6v11.9h-3.4V63.5
			c0-1.2-0.1-2.2-0.9-3c-0.8-0.8-2-1.2-3.1-1.2c-2.4,0-4.6,1.7-4.6,5.3v10.1h-3.3V59.1z"/>
		<path fill="#FCF8C3" d="M434,57h3.1v-3.7l3.3-1V57h3.9v2.4h-3.9v10.5c0,0.9,0,2.3,2.3,2.3c0.7,0,1.3-0.1,1.6-0.2v2.6
			c-0.6,0.1-1.5,0.2-2.7,0.2c-3,0-4.4-0.9-4.4-3.7V59.4H434V57z"/>
		<path fill="#FCF8C3" d="M450.4,66.4c-0.1,3.6,1.4,6.3,5,6.3c2.1,0,3.9-1.1,4.1-3.6h3.3c-0.1,0.9-0.2,2.3-1.5,3.7
			c-0.8,0.9-2.5,2.3-6.1,2.3c-5.5,0-8.2-3.4-8.2-9c0-3.5,0.7-6.3,3.5-8.3c1.7-1.2,3.8-1.3,4.8-1.3c7.9,0,7.7,7,7.6,9.8H450.4z
			 M459.6,64.1c0-1.7-0.3-5.2-4.3-5.2c-2.1,0-4.7,1.3-4.8,5.2H459.6z"/>
		<path fill="#FCF8C3" d="M468,60.6c0-1.2-0.1-2.4-0.2-3.6h3.3l0.1,3.4c0.6-2.5,2.7-3.3,4.2-3.5c1-0.1,1.7-0.1,2.3-0.1v3.2
			c-0.2-0.1-0.4-0.1-0.6-0.1c-0.2,0-0.6,0-0.9,0c-3.9,0-4.8,2.3-4.8,5.3v9.3H468V60.6z"/>
	</g>
	<g>
		<rect x="67.7" y="415.9" fill="#F1E642" width="29.8" height="14.5"/>
		<polygon fill="#F1E642" points="82.4,402.8 46.6,417.3 47.3,420.9 53.9,420.9 53.9,418.4 82.4,406.8 110.8,418.4 110.8,420.9 
			117.4,420.9 118.1,417.3 		"/>
		<g>
			<path fill="#F2E640" d="M54.8,381.7c0.2,0.2,0.4,0.4,0.6,0.4c0.2,0,0.2,0,0.4-0.1c0.4-0.2,0.5-0.7,0.3-1l-1.7-3
				c-0.2-0.4-0.7-0.5-1-0.3c-0.4,0.2-0.5,0.7-0.3,1L54.8,381.7z"/>
			<path fill="#F2E640" d="M51.6,389.2c0-0.4-0.3-0.8-0.8-0.8h-3.5c-0.4,0-0.8,0.3-0.8,0.8c0,0.4,0.3,0.8,0.8,0.8h3.5
				C51.2,390,51.6,389.6,51.6,389.2z"/>
			<path fill="#F2E640" d="M52.5,384.1l-3-1.7c-0.4-0.2-0.9-0.1-1,0.3c-0.2,0.4-0.1,0.9,0.3,1l3,1.7c0.2,0.1,0.2,0.1,0.4,0.1
				c0.2,0,0.6-0.2,0.6-0.4C52.9,384.7,52.8,384.2,52.5,384.1z"/>
			<path fill="#F2E640" d="M51.7,393.2l-3,1.7c-0.4,0.2-0.5,0.7-0.3,1c0.2,0.2,0.4,0.4,0.6,0.4c0.2,0,0.2,0,0.4-0.1l3-1.7
				c0.4-0.2,0.5-0.7,0.3-1C52.6,393.1,52.1,393,51.7,393.2z"/>
			<path fill="#F2E640" d="M67.9,385.4c0.2,0,0.2,0,0.4-0.1l3-1.7c0.4-0.2,0.5-0.7,0.3-1c-0.2-0.4-0.7-0.5-1-0.3l-3,1.7
				c-0.4,0.2-0.5,0.7-0.3,1C67.4,385.3,67.7,385.4,67.9,385.4z"/>
			<path fill="#F2E640" d="M60,380.9c0.4,0,0.8-0.3,0.8-0.8v-3.5c0-0.4-0.3-0.8-0.8-0.8c-0.4,0-0.8,0.3-0.8,0.8v3.5
				C59.2,380.5,59.6,380.9,60,380.9z"/>
			<path fill="#F2E640" d="M64.2,382c0.2,0.1,0.2,0.1,0.4,0.1c0.2,0,0.6-0.2,0.6-0.4l1.7-3c0.2-0.4,0.1-0.9-0.3-1
				c-0.4-0.2-0.9-0.1-1,0.3l-1.7,3C63.7,381.3,63.8,381.8,64.2,382z"/>
			<path fill="#F2E640" d="M72.7,388.5h-3.5c-0.4,0-0.8,0.3-0.8,0.8c0,0.4,0.3,0.8,0.8,0.8h3.5c0.4,0,0.8-0.3,0.8-0.8
				C73.4,388.9,73,388.5,72.7,388.5z"/>
			<path fill="#F2E640" d="M60,396.4c3.9,0,7-3.2,7-7c0-3.8-3.2-7-7-7c-3.9,0-7,3.2-7,7C52.9,393.1,56.1,396.4,60,396.4z"/>
			<path fill="#F2E640" d="M71.3,395l-3-1.7c-0.4-0.2-0.9-0.1-1,0.3c-0.2,0.4-0.1,0.9,0.3,1l3,1.7c0.2,0.1,0.2,0.1,0.4,0.1
				c0.2,0,0.6-0.2,0.6-0.4C71.8,395.6,71.7,395.1,71.3,395z"/>
			<path fill="#F2E640" d="M55.8,396.6c-0.4-0.2-0.9-0.1-1,0.3l-1.7,3c-0.2,0.4-0.1,0.9,0.3,1c0.2,0.1,0.2,0.1,0.4,0.1
				s0.6-0.2,0.6-0.4l1.7-3C56.3,397.1,56.1,396.8,55.8,396.6z"/>
			<path fill="#F2E640" d="M65.2,396.8c-0.2-0.4-0.7-0.5-1-0.3c-0.4,0.2-0.5,0.7-0.3,1l1.7,3c0.2,0.2,0.4,0.4,0.6,0.4s0.2,0,0.4-0.1
				c0.4-0.2,0.5-0.7,0.3-1L65.2,396.8z"/>
			<path fill="#F2E640" d="M60,397.7c-0.4,0-0.8,0.3-0.8,0.8v3.5c0,0.4,0.3,0.8,0.8,0.8c0.4,0,0.8-0.3,0.8-0.8v-3.5
				C60.7,398,60.4,397.7,60,397.7z"/>
		</g>
	</g>
</g>
<g id="Layer_4">
	<g>
		<path fill="#F2E73F" d="M42.3,285.2L42.3,285.2c1-1.3,2.5-1.8,4.2-1.8c4.7,0,6.1,3.2,6.1,9.4c0,7.6-2.9,9.8-8.7,9.8
			c-4.7,0-7.7-2-7.6-7.1h5.8c0,0.8,0.1,1.5,0.4,2c0.3,0.5,0.9,0.9,1.8,0.9c2.3,0,2.6-1.8,2.6-5.6c0-1.8,0.2-5.7-2.5-5.7
			c-1.7,0-2.2,1.9-2.2,3.2h-5.6v-16.5h14.9v4.4h-9.3V285.2z"/>
		<path fill="#F2E73F" d="M78.4,284.5v-11.8h6.2v29.5h-6.2V289h-7.1v13.2h-6.2v-29.5h6.2v11.8H78.4z"/>
		<path fill="#F2E73F" d="M87.7,302.2l8.2-29.5h8.1l8,29.5h-6.5l-1.6-6.5h-8.4l-1.7,6.5H87.7z M99.6,278.4L99.6,278.4l-2.9,12.7h5.9
			L99.6,278.4z"/>
		<path fill="#F2E73F" d="M121,302.2h-6.2v-29.5h11.4c4.2,0,6.9,2.7,6.9,7.7c0,3.8-1.5,6.6-5.5,7.2v0.1c1.3,0.2,5.4,0.5,5.4,5.8
			c0,1.9,0.1,7.4,0.7,8.7h-6c-0.8-1.8-0.7-3.8-0.7-5.7c0-3.5,0.3-6.5-4.4-6.5H121V302.2z M121,285.4h2.7c2.5,0,3.1-2.5,3.1-4.3
			c0-2.8-1.2-3.9-3.1-3.9H121V285.4z"/>
		<path fill="#F2E73F" d="M137.8,272.7h10.3c8.1,0,9.6,5.4,9.6,14.6c0,4.5,0.7,14.9-9.8,14.9h-10.1V272.7z M143.9,297.7h3
			c3.8,0,4.5-2.8,4.5-10.2c0-5.4,0-10.2-4.3-10.2h-3.2V297.7z"/>
		<path fill="#F2E73F" d="M51.5,321.3c0-1.7-0.1-3.4-0.9-4.3s-2.5-1.3-3.3-1.3c-3.1,0-4.3,1.9-4.5,2.3c-0.1,0.3-0.9,1.1-0.9,6.1v7.9
			c0,7.2,2.4,8.1,5.3,8.1c1.1,0,4.6-0.4,4.7-6.2h3.9c0.2,9.3-6.4,9.3-8.3,9.3c-3.7,0-9.3-0.2-9.3-11.7v-8.3c0-8.3,3.7-10.7,9.5-10.7
			c5.8,0,8.1,3,7.7,8.7H51.5z"/>
		<path fill="#F2E73F" d="M60.1,331.9v-9.7c0-5.9,3-9.6,9.3-9.6c6.3,0,9.3,3.8,9.3,9.6v9.7c0,8.2-3,11.4-9.3,11.4
			C63.1,343.3,60.1,340.1,60.1,331.9z M74.8,332.1v-10c0-6.2-4.2-6.4-5.4-6.4s-5.4,0.2-5.4,6.4v10c0,6.5,1.9,8.1,5.4,8.1
			S74.8,338.5,74.8,332.1z"/>
		<path fill="#F2E73F" d="M84,313.2h3.8v18.9c0,6.5,2,8.1,5.5,8.1s5.5-1.6,5.5-8.1v-18.9h3.8v18.7c0,8.2-3,11.4-9.3,11.4
			c-6.3,0-9.3-3.2-9.3-11.4V313.2z"/>
		<path fill="#F2E73F" d="M111.8,329.1v13.6H108v-29.5h10.2c5.2,0,7.1,3.7,7.1,7.4c0,3.5-1.9,6.1-5.4,6.7v0.1
			c3.4,0.5,4.6,1.7,4.8,7.6c0,1.3,0.4,5.9,1,7.7h-3.9c-1.1-2-0.8-5.9-1.1-9.8c-0.3-3.6-3.2-3.8-4.5-3.8H111.8z M111.8,325.9h5.6
			c2.7,0,4-2.3,4-4.9c0-2.1-1.1-4.5-4-4.5h-5.7V325.9z"/>
		<path fill="#F2E73F" d="M147.4,313.2v3.3h-7.8v26.2h-3.8v-26.2h-7.8v-3.3H147.4z"/>
		<path fill="#F2E73F" d="M153.1,333.9v0.9c0,4,2.5,5.3,4.9,5.3c3,0,5.3-1.3,5.3-4.8c0-6.5-13.2-5.8-13.2-14.7c0-5.2,3.7-8,8.7-8
			c5.4,0,8.4,2.6,8.2,8.6H163c0-3.2-1-5.4-4.5-5.4c-2.2,0-4.5,1.1-4.5,4.3c0,6.5,13.2,5.6,13.2,14.9c0,6.2-4.3,8.2-9.2,8.2
			c-8.7,0.1-8.7-6.6-8.6-9.4H153.1z"/>
	</g>
	<g>
		<path fill="#FCF8C3" d="M62.7,126.9c26.7,0,24.8,26.7,24.8,42.6c0,21.5-1.7,29.7-9.3,34.7l0.2,0.2h14.3v6.1H77
			c-1.7,0-3.3,0.1-4.9,0.2c-1.7,0.1-3.5,0.2-5.9,0.2c-28.2,0-28.3-15.5-28.3-41.5C37.9,153.6,36,126.9,62.7,126.9z M80.2,169.5
			c0-20.7,0.2-36.5-17.5-36.5s-17.5,15.8-17.5,36.5c0,23.6,1.6,35.3,17.5,35.3C78.1,204.8,80.2,190.3,80.2,169.5z"/>
		<path fill="#FCF8C3" d="M105.5,180.1c0,10.7,0,25.9,16.7,25.9s16.7-15.2,16.7-25.9v-51.6h7.3v56.9c0,21.1-11.1,26.7-24,26.7
			s-24-5.6-24-26.7v-56.9h7.3V180.1z"/>
		<path fill="#FCF8C3" d="M193.7,128.5v6.1h-29.9v30.7h28.5v6.1h-28.5v33h30.7v6.1h-38v-82.1H193.7z"/>
		<path fill="#FCF8C3" d="M240.6,128.5v6.1h-29.9v30.7h28.5v6.1h-28.5v33h30.7v6.1h-38v-82.1H240.6z"/>
		<path fill="#FCF8C3" d="M250.4,210.5v-82.1h11.1l33.3,72.1l0.2-0.2v-71.8h7.3v82.1h-11l-33.4-72.9l-0.2,0.2v72.6H250.4z"/>
		<path fill="#FCF8C3" d="M349.7,149.3c-0.2-10.1-2.7-16.3-13.9-16.3c-8.9,0-14.4,3.1-14.4,12.7c0,12.2,6.1,12.5,15.5,19.2
			c10.1,7.3,20.5,9.4,20.5,25.3c0,14.7-7.5,21.8-21.8,21.8c-16,0-23.2-8.6-22.5-24.7h7.5c0,9.1,0.7,18.5,15.3,18.5
			c9.5,0,14.2-5.1,14.2-14.5c0-11.1-7.4-14.3-19.2-21.6c-15.9-9.8-16.6-14.7-16.7-22.8c-0.1-14.2,8.9-20.1,22.3-20.1
			c17,0,20.7,10.6,20.7,22.4H349.7z"/>
	</g>
	<line fill="none" stroke="#FCF8C3" stroke-width="4" stroke-miterlimit="10" x1="36.8" y1="103.2" x2="561.3" y2="103.2"/>
	<line fill="none" stroke="#F2E73F" stroke-width="4" stroke-miterlimit="10" x1="36.8" y1="360" x2="169.5" y2="360"/>
</g>
</svg>
