<?xml version="1.0" encoding="utf-8"?>
<!-- Generator: Adobe Illustrator 17.1.0, SVG Export Plug-In . SVG Version: 6.00 Build 0)  -->
<!DOCTYPE svg PUBLIC "-//W3C//DTD SVG 1.1//EN" "http://www.w3.org/Graphics/SVG/1.1/DTD/svg11.dtd">
<svg version="1.1" xmlns="http://www.w3.org/2000/svg" xmlns:xlink="http://www.w3.org/1999/xlink" x="0px" y="0px"
	 viewBox="0 0 600 495" enable-background="new 0 0 600 495" xml:space="preserve">
<g id="Layer_1">
	<rect x="-26" y="-52" fill="#E0943A" width="664" height="294.2"/>
	<rect x="-22" y="242.2" fill="#A8C659" width="685" height="261.7"/>
</g>
<g id="Layer_2">
	<g>
		<path fill="#FCF8C3" d="M293.6,273.8V445h131.1h5.4h131.1V273.8H430h-5.4H293.6z M430,300.5v-5.4H505v61.5H430v-5.4h-5.4v5.4
			h-72.2v-61.5h72.2v5.4H430z M555.8,362.1v58.9h-45.5V295.2h45.5v61.5h-8v5.4H555.8z M424.7,418.2v2.7h-72.2v-58.9h72.2v5.4h5.4
			v-5.4H505v58.9H430v-2.7H424.7z M347.1,420.9h-48.2v-58.9h8v-5.4h-8v-61.5h48.2V420.9z M298.9,439.6v-13.4h125.7v14.8h5.4v-14.8
			h125.7v13.4H298.9z M555.8,289.8H430v-13.4h-5.4v13.4H298.9v-10.7h256.8V289.8z"/>
		<rect x="424.7" y="396.8" fill="#FCF8C3" width="5.4" height="13.4"/>
		<rect x="424.7" y="372.8" fill="#FCF8C3" width="5.4" height="16.1"/>
		<rect x="424.7" y="330" fill="#FCF8C3" width="5.4" height="16.1"/>
		<rect x="424.7" y="308.5" fill="#FCF8C3" width="5.4" height="13.4"/>
	</g>
</g>
<g id="Layer_3">
	<g>
		<path fill="#F2E73F" d="M68.3,443.5V431c1.6-0.7,3.5-1.9,4.9-3.6c1.1,0.6,2.2,0.8,3.6,0.8c4.8,0,8.6-3.8,8.6-8.6
			c0-2.6-1.2-5-3.1-6.6c1.9-1.6,3.1-4,3.1-6.6c0-4.8-3.9-8.6-8.6-8.6c-0.2,0-0.3,0-0.6,0C74.4,392,70,388,64.6,388
			c-6.8,0-12.4,6.5-12.4,14.5v0.1c-4.3,0.5-7.7,4.2-7.7,8.6c0,3.6,2.2,6.7,5.4,8c-0.6,1.1-0.8,2.4-0.8,3.7c0,4.8,4.1,8.6,8.9,8.6
			c1,0,1.6-0.2,3.2-0.6v12.6H68.3z"/>
		<path fill="#F2E73F" d="M92.2,383.5c0.2,0.2,0.4,0.4,0.6,0.4c0.2,0,0.2,0,0.4-0.1c0.4-0.2,0.5-0.7,0.3-1l-1.8-3.2
			c-0.2-0.4-0.7-0.5-1-0.3c-0.4,0.2-0.5,0.7-0.3,1L92.2,383.5z"/>
		<path fill="#F2E73F" d="M88.8,391.4c0-0.4-0.3-0.8-0.8-0.8h-3.7c-0.4,0-0.8,0.3-0.8,0.8c0,0.4,0.3,0.8,0.8,0.8H88
			C88.4,392.2,88.8,391.8,88.8,391.4z"/>
		<path fill="#F2E73F" d="M89.7,385.9l-3.2-1.8c-0.4-0.2-0.9-0.1-1,0.3c-0.2,0.4-0.1,0.9,0.3,1l3.2,1.8c0.2,0.1,0.2,0.1,0.4,0.1
			c0.2,0,0.6-0.2,0.6-0.4C90.2,386.6,90,386.1,89.7,385.9z"/>
		<path fill="#F2E73F" d="M88.9,395.5l-3.2,1.8c-0.4,0.2-0.5,0.7-0.3,1c0.2,0.2,0.4,0.4,0.6,0.4c0.2,0,0.2,0,0.4-0.1l3.2-1.8
			c0.4-0.2,0.5-0.7,0.3-1C89.8,395.5,89.3,395.3,88.9,395.5z"/>
		<path fill="#F2E73F" d="M105.9,387.4c0.2,0,0.2,0,0.4-0.1l3.2-1.8c0.4-0.2,0.5-0.7,0.3-1c-0.2-0.4-0.7-0.5-1-0.3l-3.2,1.8
			c-0.4,0.2-0.5,0.7-0.3,1C105.4,387.2,105.7,387.4,105.9,387.4z"/>
		<path fill="#F2E73F" d="M97.6,382.6c0.4,0,0.8-0.3,0.8-0.8v-3.7c0-0.4-0.3-0.8-0.8-0.8c-0.4,0-0.8,0.3-0.8,0.8v3.7
			C96.8,382.2,97.2,382.6,97.6,382.6z"/>
		<path fill="#F2E73F" d="M102,383.8c0.2,0.1,0.2,0.1,0.4,0.1c0.2,0,0.6-0.2,0.6-0.4l1.8-3.2c0.2-0.4,0.1-0.9-0.3-1
			c-0.4-0.2-0.9-0.1-1,0.3l-1.8,3.2C101.5,383.1,101.6,383.5,102,383.8z"/>
		<path fill="#F2E73F" d="M110.9,390.6h-3.7c-0.4,0-0.8,0.3-0.8,0.8c0,0.4,0.3,0.8,0.8,0.8h3.7c0.4,0,0.8-0.3,0.8-0.8
			C111.7,391,111.3,390.6,110.9,390.6z"/>
		<path fill="#F2E73F" d="M97.6,398.8c4.1,0,7.4-3.4,7.4-7.4c0-4.1-3.4-7.4-7.4-7.4s-7.4,3.4-7.4,7.4
			C90.2,395.5,93.6,398.8,97.6,398.8z"/>
		<path fill="#F2E73F" d="M109.5,397.4l-3.2-1.8c-0.4-0.2-0.9-0.1-1,0.3c-0.2,0.4-0.1,0.9,0.3,1l3.2,1.8c0.2,0.1,0.2,0.1,0.4,0.1
			c0.2,0,0.6-0.2,0.6-0.4C110,398,109.9,397.5,109.5,397.4z"/>
		<path fill="#F2E73F" d="M93.2,399.1c-0.4-0.2-0.9-0.1-1,0.3l-1.8,3.2c-0.2,0.4-0.1,0.9,0.3,1c0.2,0.1,0.2,0.1,0.4,0.1
			c0.2,0,0.6-0.2,0.6-0.4l1.8-3.2C93.7,399.7,93.6,399.2,93.2,399.1z"/>
		<path fill="#F2E73F" d="M103.1,399.3c-0.2-0.4-0.7-0.5-1-0.3c-0.4,0.2-0.5,0.7-0.3,1l1.8,3.2c0.2,0.2,0.4,0.4,0.6,0.4
			c0.2,0,0.2,0,0.4-0.1c0.4-0.2,0.5-0.7,0.3-1L103.1,399.3z"/>
		<path fill="#F2E73F" d="M97.6,400.3c-0.4,0-0.8,0.3-0.8,0.8v3.7c0,0.4,0.3,0.8,0.8,0.8c0.4,0,0.8-0.3,0.8-0.8v-3.7
			C98.4,400.6,98,400.3,97.6,400.3z"/>
		<g>
			<path fill="#F2E73F" d="M102,427.8c1-0.9,1.7-2.2,1.7-3.7c0-2.6-2.2-4.8-4.8-4.8c-0.1,0-0.2,0-0.3,0c-1-3-3.4-5.3-6.4-5.3
				c-2.6,0-4.8,1.7-5.9,4.1c0.1,0.4,0.1,0.9,0.1,1.3c0,3.7-2,6.9-5,8.6c0.4,1.4,1.4,2.6,2.8,3.2c-0.3,0.6-0.5,1.3-0.5,2
				c0,2.6,2,4.8,4.6,4.8c0.6,0,1.5-0.1,1.5-0.3v5.8h4v-5.8c0-0.4,2.2-1,3-2c0.6,0.3,1.4,0.5,2.1,0.5c2.6,0,4.8-2.2,4.8-4.8
				C103.7,430,103.1,428.7,102,427.8z"/>
		</g>
	</g>
	<g>
		<path fill="#FCF8C3" d="M40,67.8c0,0.9,0,2,0.6,2.8c0.4,0.7,1.5,1.5,3.3,1.5c1.4,0,2.8-0.6,3.5-1.8c0.6-1,0.6-2.6,0.6-3.4V49.4
			h3.5v18.5c0,4.7-3.7,7.2-7.8,7.2c-1.3,0-4.3-0.3-6-2.6c-1.2-1.6-1.3-3.6-1.3-4.6H40z"/>
		<path fill="#FCF8C3" d="M65.1,56.6c7,0,8.6,5.5,8.6,9.2c0,5.1-2.9,9.4-8.9,9.4c-5.8,0-8.6-4-8.6-9.2
			C56.1,61.7,58.2,56.6,65.1,56.6z M64.8,72.8c2.5,0,5.3-1.8,5.3-7.1c0-4.4-2-6.7-5.1-6.7c-2.1,0-5.5,1.3-5.5,6.8
			C59.6,69.4,61.1,72.8,64.8,72.8z"/>
		<path fill="#FCF8C3" d="M80.7,69.4c0,1.3,0.7,3.2,3.9,3.2c1.4,0,2.4-0.2,3.1-1.1c0.4-0.5,0.6-1.1,0.6-1.6c0-1.7-1.2-2-3.9-2.6
			c-3.7-0.8-6.8-1.6-6.8-5.3c0-3.2,2.8-5.3,6.9-5.3c2.2,0,5.3,0.6,6.3,2.7c0.5,1,0.5,1.8,0.5,2.6h-3.4c0.1-2.7-2.2-2.9-3.4-2.9
			c-0.5,0-3.6,0-3.6,2.5c0,1.6,1.6,2,2.5,2.2c4.9,1.2,5.9,1.4,7,2.4c1,0.9,1.3,2.1,1.3,3.3c0,2-1.1,3.6-2.4,4.4
			c-1.5,0.9-3.4,1.2-5.2,1.2c-3.6,0-6.9-1.5-6.9-5.7H80.7z"/>
		<path fill="#FCF8C3" d="M98.3,66.4c-0.1,3.6,1.4,6.3,5,6.3c2.1,0,3.9-1.1,4.1-3.6h3.3c-0.1,0.9-0.2,2.3-1.5,3.7
			c-0.8,0.9-2.5,2.3-6.1,2.3c-5.5,0-8.2-3.4-8.2-9c0-3.5,0.7-6.3,3.5-8.3c1.7-1.2,3.8-1.3,4.8-1.3c7.9,0,7.7,7,7.6,9.8H98.3z
			 M107.6,64.1c0-1.7-0.3-5.2-4.3-5.2c-2.1,0-4.7,1.3-4.8,5.2H107.6z"/>
		<path fill="#FCF8C3" d="M115.7,59.9c0-0.8,0-1.2-0.1-2.9h3.3L119,60c1.6-2.8,4.6-3.2,6-3.2c3.8,0,7.4,2.6,7.4,9.1
			c0,6.5-3.8,9.4-8,9.4c-2.6,0-4.4-1.1-5.4-2.6v8.7h-3.3V59.9z M123.8,72.9c0.8,0,2.6-0.2,3.7-1.7c1.3-1.7,1.4-4.2,1.4-5.5
			c0-3.2-0.9-6.4-4.8-6.4c-5.3,0-5.3,5.6-5.3,7.1C118.8,68.5,119.1,72.9,123.8,72.9z"/>
		<path fill="#FCF8C3" d="M137.2,49.4h3.3v10.3c1.1-1.9,3.3-2.9,5.7-2.9c1.9,0,4.5,0.7,5.5,2.8c0.4,0.7,0.6,1.5,0.6,4.1v11H149V64.2
			c0-1.6,0-5-3.8-5c-2.5,0-3.7,1.5-4.1,2.3c-0.6,1-0.6,2.6-0.6,3.7v9.3h-3.3V49.4z"/>
		<path fill="#FCF8C3" d="M168.1,74.6V52.3h-8.5v-3H180v3h-8.5v22.3H168.1z"/>
		<path fill="#FCF8C3" d="M177.2,70.4h3.9v4.2h-3.9V70.4z"/>
		<path fill="#FCF8C3" d="M196.9,49.4h6.2l7.1,20.8l7.3-20.8h5.8v25.3h-3.4V51.9l-8.3,22.8h-3.3l-8-22.6v22.6h-3.4V49.4z"/>
		<path fill="#FCF8C3" d="M239.9,62.7c-0.1-0.8-0.3-3.7-3.5-3.7c-4.6,0-4.6,5.3-4.6,6.6c0,3.6,0.9,7,4.4,7c2.8,0,3.7-2.1,3.8-3.8
			h3.3c-0.2,3.4-2.8,6.3-7.1,6.3c-1.2,0-3.9-0.2-5.8-2.3c-1-1.2-2.1-3.1-2.1-6.7c0-7.3,4.5-9.5,8-9.5c1.2,0,3.8,0.2,5.4,2.2
			c1.3,1.5,1.4,2.9,1.5,3.9H239.9z"/>
		<path fill="#FCF8C3" d="M264.5,55.7c-0.4-2.3-2.3-4-5.7-4c-2.4,0-4.4,0.6-5.7,2.1c-2.2,2.5-2.7,5.7-2.7,8.1c0,2.1,0.5,5.7,2.3,7.9
			c1.6,1.9,4.2,2.5,6.7,2.5c2.9,0,4.7-0.6,5.5-0.8v-7.5h-5.8v-2.9h9.3v12.5c-1.5,0.5-4.7,1.5-9,1.5c-4.7,0-7.4-1.3-9.2-3.2
			c-2.5-2.5-3.5-6.1-3.5-9.6c0-2.5,0.6-8.5,5.4-11.7c2.5-1.7,5.8-1.8,7-1.8c2,0,5,0.2,7.5,2.7c1.5,1.6,1.6,3,1.7,4H264.5z"/>
		<path fill="#FCF8C3" d="M277.7,57.1v11.3c0,1.7,0.4,3.9,3.7,3.9c1.6,0,3.2-0.6,4.1-2c0.7-1.1,0.7-2.4,0.7-3.3v-9.9h3.4v14.3
			c0,0.4,0.1,2.3,0.1,3.3h-3.4l-0.1-3c-0.6,1.2-1.8,3.2-5.6,3.2c-4.3,0-6.4-2.5-6.4-6V57.1H277.7z"/>
		<path fill="#FCF8C3" d="M295.7,49.4h4V53h-4V49.4z M296.1,57.1h3.3v17.6h-3.3V57.1z"/>
		<path fill="#FCF8C3" d="M305.9,60.6c0-1.2-0.1-2.4-0.2-3.6h3.3l0.1,3.4c0.6-2.5,2.7-3.3,4.2-3.5c1-0.1,1.7-0.1,2.3-0.1v3.2
			c-0.2-0.1-0.4-0.1-0.6-0.1c-0.2,0-0.6,0-0.9,0c-3.9,0-4.8,2.3-4.8,5.3v9.3h-3.3V60.6z"/>
		<path fill="#FCF8C3" d="M321.4,66.4c-0.1,3.6,1.4,6.3,5,6.3c2.1,0,3.9-1.1,4.1-3.6h3.3c-0.1,0.9-0.2,2.3-1.5,3.7
			c-0.8,0.9-2.5,2.3-6.1,2.3c-5.5,0-8.2-3.4-8.2-9c0-3.5,0.7-6.3,3.5-8.3c1.7-1.2,3.8-1.3,4.8-1.3c7.9,0,7.7,7,7.6,9.8H321.4z
			 M330.6,64.1c0-1.7-0.3-5.2-4.3-5.2c-2.1,0-4.7,1.3-4.8,5.2H330.6z"/>
		<path fill="#FCF8C3" d="M348.6,49.4h8.5c3.1,0,5.2,0.2,6.9,2c1.3,1.3,1.9,3,1.9,4.9c0,1.9-0.6,3.6-2,4.9c-1.3,1.3-3.1,2.2-7.6,2.2
			h-4.1v11.2h-3.5V49.4z M352.1,60.4h4.2c2.3,0,5.8-0.2,5.8-4.3c0-4-3.3-4-5.1-4h-4.9V60.4z"/>
		<path fill="#FCF8C3" d="M379.6,74.6c-0.2-0.9-0.3-1.7-0.3-2.6c-1.6,2.9-4,3.2-5.4,3.2c-4,0-6.2-2.3-6.2-5.2c0-1.4,0.5-3.6,3.1-5.1
			c1.9-1,4.7-1.2,6.1-1.2c0.8,0,1.4,0,2.4,0.1c0-2.2,0-3.1-0.6-3.9c-0.7-0.9-2.1-1.2-3-1.2c-3.3,0-3.5,2.3-3.5,3h-3.3
			c0.1-0.9,0.2-2.1,1.2-3.3c1.3-1.5,3.8-1.9,5.7-1.9c2.6,0,5.3,0.8,6.2,2.6c0.6,1.1,0.6,1.9,0.6,2.7l-0.1,8.4c0,0.3,0,2.6,0.3,4.4
			H379.6z M377.3,66c-1.3,0-6.3,0-6.3,3.6c0,1.1,0.7,3,3.6,3c1.7,0,2.9-0.7,3.7-1.9c0.7-1.2,0.8-2.2,0.8-4.6
			C378.6,66,378.1,66,377.3,66z"/>
		<path fill="#FCF8C3" d="M388.5,60.6c0-1.2-0.1-2.4-0.2-3.6h3.3l0.1,3.4c0.6-2.5,2.7-3.3,4.2-3.5c1-0.1,1.7-0.1,2.3-0.1v3.2
			c-0.2-0.1-0.4-0.1-0.6-0.1c-0.2,0-0.6,0-0.9,0c-3.9,0-4.8,2.3-4.8,5.3v9.3h-3.3V60.6z"/>
		<path fill="#FCF8C3" d="M401.7,49.2h3.3v15.1l6.6-7.2h4.3l-7.4,7.5l7.9,10.1H412l-7-9.5v9.5h-3.3V49.2z"/>
	</g>
</g>
<g id="Layer_4">
	<g>
		<path fill="#F2E73F" d="M36,280.8c0-2.9,0.7-4.8,2-6c1.3-1.1,3.4-1.5,6.2-1.5c5.3,0,7.8,2.2,7.8,7.6c0,2.7-0.8,5.9-3.9,6.3v0.1
			c3.7,0.7,4.3,3.6,4.3,6.9c0,5.9-3.1,8.3-8.9,8.3c-5.6,0-7.8-2-7.8-8.1h5.8c0,1.9-0.1,3.9,2.4,3.9c2.6,0,2.8-2.4,2.8-4.4
			c0-4.1-1.3-4.4-5.4-4.4v-4.5c3.8,0.2,4.9-0.2,4.9-4.2c0-1.6-0.2-3.4-2.2-3.4c-2.1,0-2.2,1.7-2.2,3.3H36z"/>
		<path fill="#F2E73F" d="M78.4,284.5v-11.8h6.2v29.5h-6.2V289h-7.1v13.2h-6.2v-29.5h6.2v11.8H78.4z"/>
		<path fill="#F2E73F" d="M87.7,302.2l8.2-29.5h8.1l8,29.5h-6.5l-1.6-6.5h-8.4l-1.7,6.5H87.7z M99.6,278.4L99.6,278.4l-2.9,12.7h5.9
			L99.6,278.4z"/>
		<path fill="#F2E73F" d="M121,302.2h-6.2v-29.5h11.4c4.2,0,6.9,2.7,6.9,7.7c0,3.8-1.5,6.6-5.5,7.2v0.1c1.3,0.2,5.4,0.5,5.4,5.8
			c0,1.9,0.1,7.4,0.7,8.7h-6c-0.8-1.8-0.7-3.8-0.7-5.7c0-3.5,0.3-6.5-4.4-6.5H121V302.2z M121,285.4h2.7c2.5,0,3.1-2.5,3.1-4.3
			c0-2.8-1.2-3.9-3.1-3.9H121V285.4z"/>
		<path fill="#F2E73F" d="M137.8,272.7h10.3c8.1,0,9.6,5.4,9.6,14.6c0,4.5,0.7,14.9-9.8,14.9h-10.1V272.7z M143.9,297.7h3
			c3.8,0,4.5-2.8,4.5-10.2c0-5.4,0-10.2-4.3-10.2h-3.2V297.7z"/>
		<path fill="#F2E73F" d="M51.5,321.3c0-1.7-0.1-3.4-0.9-4.3s-2.5-1.3-3.3-1.3c-3.1,0-4.3,1.9-4.5,2.3c-0.1,0.3-0.9,1.1-0.9,6.1v7.9
			c0,7.2,2.4,8.1,5.3,8.1c1.1,0,4.6-0.4,4.7-6.2h3.9c0.2,9.3-6.4,9.3-8.3,9.3c-3.7,0-9.3-0.2-9.3-11.7v-8.3c0-8.3,3.7-10.7,9.5-10.7
			c5.8,0,8.1,3,7.7,8.7H51.5z"/>
		<path fill="#F2E73F" d="M60.1,331.9v-9.7c0-5.9,3-9.6,9.3-9.6c6.3,0,9.3,3.8,9.3,9.6v9.7c0,8.2-3,11.4-9.3,11.4
			C63.1,343.3,60.1,340.1,60.1,331.9z M74.8,332.1v-10c0-6.2-4.2-6.4-5.4-6.4s-5.4,0.2-5.4,6.4v10c0,6.5,1.9,8.1,5.4,8.1
			S74.8,338.5,74.8,332.1z"/>
		<path fill="#F2E73F" d="M84,313.2h3.8v18.9c0,6.5,2,8.1,5.5,8.1s5.5-1.6,5.5-8.1v-18.9h3.8v18.7c0,8.2-3,11.4-9.3,11.4
			c-6.3,0-9.3-3.2-9.3-11.4V313.2z"/>
		<path fill="#F2E73F" d="M111.8,329.1v13.6H108v-29.5h10.2c5.2,0,7.1,3.7,7.1,7.4c0,3.5-1.9,6.1-5.4,6.7v0.1
			c3.4,0.5,4.6,1.7,4.8,7.6c0,1.3,0.4,5.9,1,7.7h-3.9c-1.1-2-0.8-5.9-1.1-9.8c-0.3-3.6-3.2-3.8-4.5-3.8H111.8z M111.8,325.9h5.6
			c2.7,0,4-2.3,4-4.9c0-2.1-1.1-4.5-4-4.5h-5.7V325.9z"/>
		<path fill="#F2E73F" d="M147.4,313.2v3.3h-7.8v26.2h-3.8v-26.2h-7.8v-3.3H147.4z"/>
		<path fill="#F2E73F" d="M153.1,333.9v0.9c0,4,2.5,5.3,4.9,5.3c3,0,5.3-1.3,5.3-4.8c0-6.5-13.2-5.8-13.2-14.7c0-5.2,3.7-8,8.7-8
			c5.4,0,8.4,2.6,8.2,8.6H163c0-3.2-1-5.4-4.5-5.4c-2.2,0-4.5,1.1-4.5,4.3c0,6.5,13.2,5.6,13.2,14.9c0,6.2-4.3,8.2-9.2,8.2
			c-8.7,0.1-8.7-6.6-8.6-9.4H153.1z"/>
	</g>
	<g>
		<path fill="#FCF8C3" d="M38.8,210.5v-82.1h22.8c12.8,0,19.4,5.2,19.4,19.7c0,9.9-1.6,16.7-11.9,19.5v0.2
			c10.8,2.3,13.6,9.4,13.6,19.8c0,14.8-7,22.8-20.8,22.8H38.8z M60.1,165c10.5,0,13.8-7.2,13.8-16.5c0-13.6-7.5-13.9-13.3-13.9H46.1
			V165H60.1z M46.1,204.4h11.6c12,0,17.8-4.1,17.8-16.1c0-7.3-2.2-17.2-14.7-17.2H46.1V204.4z"/>
		<path fill="#FCF8C3" d="M99.3,170.7v39.8H92v-82.1h22.6c15.8,0,19.8,5.2,19.8,19.7c0,10.2-1.7,17-12.7,19.5v0.2
			c11.5,2.4,12.2,3.8,12.2,33.1c0,3.2,0.6,6.4,0.8,9.5h-6.9c-0.7-2.4-1-16-1.1-20.5c-0.1-3.5,2.3-19.3-13.5-19.3H99.3z M99.3,164.6
			h11.8c10.9,0,16-2.8,16-16.6c0-11.3-4.4-13.4-13-13.4H99.3V164.6z"/>
		<path fill="#FCF8C3" d="M169.1,126.9c24.6,0,24.8,20.5,24.8,42.6s-0.2,42.6-24.8,42.6s-24.8-20.5-24.8-42.6
			S144.5,126.9,169.1,126.9z M169.1,206c17.3,0,17.5-14.7,17.5-36.5s-0.2-36.5-17.5-36.5s-17.5,14.7-17.5,36.5S151.8,206,169.1,206z
			"/>
		<path fill="#FCF8C3" d="M228.6,126.9c24.6,0,24.8,20.5,24.8,42.6s-0.2,42.6-24.8,42.6s-24.8-20.5-24.8-42.6
			S204.1,126.9,228.6,126.9z M228.6,206c17.3,0,17.5-14.7,17.5-36.5s-0.2-36.5-17.5-36.5s-17.5,14.7-17.5,36.5S211.3,206,228.6,206z
			"/>
		<path fill="#FCF8C3" d="M265.4,210.5v-82.1h7.3v37.6h0.2l29.1-37.6h8.8l-30.7,38.3l31.6,43.8h-9.1L273,168.5h-0.2v42.1H265.4z"/>
		<path fill="#FCF8C3" d="M317.4,210.5v-82.1h7.3v75.9h27.2v6.1H317.4z"/>
		<path fill="#FCF8C3" d="M368,176.4l-23.2-48h8.2l18.8,40.8l19.7-40.8h7.3l-23.4,48v34.1H368V176.4z"/>
		<path fill="#FCF8C3" d="M405.3,210.5v-82.1h11.1l33.3,72.1l0.2-0.2v-71.8h7.3v82.1h-11l-33.4-72.9l-0.2,0.2v72.6H405.3z"/>
	</g>
	<line fill="none" stroke="#FCF8C3" stroke-width="4" stroke-miterlimit="10" x1="36.8" y1="103.2" x2="561.3" y2="103.2"/>
	<line fill="none" stroke="#F2E73F" stroke-width="4" stroke-miterlimit="10" x1="36.8" y1="360" x2="169" y2="360"/>
</g>
</svg>
